<?xml version="1.0" standalone="no"?>
<!DOCTYPE svg PUBLIC "-//W3C//DTD SVG 20010904//EN"
 "http://www.w3.org/TR/2001/REC-SVG-20010904/DTD/svg10.dtd">
<svg version="1.0" xmlns="http://www.w3.org/2000/svg"
 width="319.000000pt" height="319.000000pt" viewBox="0 0 319.000000 319.000000"
 preserveAspectRatio="xMidYMid meet">
<metadata>
Created by potrace 1.11, written by Peter Selinger 2001-2013
</metadata>
<g transform="translate(0.000000,319.000000) scale(0.100000,-0.100000)"
fill="#000000" stroke="none">
<path d="M1395 3120 c-22 -4 -58 -10 -80 -13 -115 -14 -295 -72 -430 -137
-358 -173 -638 -467 -773 -813 -81 -206 -106 -338 -106 -562 0 -268 33 -417
144 -650 223 -465 702 -808 1221 -872 79 -10 353 -10 434 -1 262 30 545 143
760 304 110 81 179 152 279 284 27 36 51 67 55 70 14 12 112 212 145 298 20
50 46 131 57 180 11 48 24 103 29 122 23 92 29 314 12 425 -6 39 -14 93 -17
120 -6 47 -58 232 -75 266 -4 8 -22 49 -38 91 -17 42 -49 106 -71 143 -23 37
-41 69 -41 71 0 3 -9 15 -21 27 -23 25 -79 103 -79 111 0 3 -37 42 -82 88
-245 243 -527 385 -886 444 -59 10 -393 13 -437 4z"/>
</g>
</svg>
