<svg height="110" viewBox="0 0 111 110" width="111" xmlns="http://www.w3.org/2000/svg" xmlns:xlink="http://www.w3.org/1999/xlink"><defs><circle id="a" cx="40" cy="40" r="40"/><filter id="b" height="156.2%" width="156.2%" x="-28.1%" y="-28.1%"><feMorphology in="SourceAlpha" operator="dilate" radius="2.5" result="shadowSpreadOuter1"/><feOffset dx="0" dy="0" in="shadowSpreadOuter1" result="shadowOffsetOuter1"/><feGaussianBlur in="shadowOffsetOuter1" result="shadowBlurOuter1" stdDeviation="5"/><feColorMatrix in="shadowBlurOuter1" type="matrix" values="0 0 0 0 0.878431373   0 0 0 0 0.125490196   0 0 0 0 0.619978061  0 0 0 0.796246722 0"/></filter></defs><g fill="none" fill-rule="evenodd"><g transform="translate(15.5 15)"><use fill="#000" filter="url(#b)" xlink:href="#a"/><use fill="#f7f300" fill-rule="evenodd" xlink:href="#a"/></g><g transform="translate(19.774809 33.931298)"><path d="m39.1640372 18.9312977c8.035083 0 15.2440882 1.0911926 20.0839091 2.8111147v10.3543581c-2.1830671.7757398-4.8481646 1.4235593-7.8536776 1.901028.556674.5450661.9173023 1.0230085 1.0438658 1.195129v1.7988232h-4.5940316c.0964901-.0811381.1470326-.1293252.1470326-.1293252l-8.2491379-.7561805c.3415373-.4446576.6796166-.8485626 1.0137848-1.2146034-.5261794.0111718-1.0571338.0160018-1.5917452.0160018-7.0206197 0-13.3659925-.832905-18.1445499-2.1904264v.0096133c-1.9604338-.6297575-3.6824298-1.3615119-4.9739269-2.1681769.4625399 1.1125351 1.248245 2.61885 1.893534 3.7558112 1.3830248 2.1169064 1.8807912 3.9721997 1.8157906 4.0654904-.0412917.0588282-.5140013-.5497076-1.2103841-1.5381172-1.6212788-1.9276042-4.6938912-5.6086862-5.3071394-6.5490901-.6952188-1.0665246-.3023356-1.5719146-.3023356-1.5719146l.4891282-.865856c-.1444594-.3548431-.2268589-.7166997-.2268589-1.0841187 0-2.330574 3.0436347-4.4384716 7.8221921-5.9557299v.3065956c4.7785574-1.35734 11.1239302-2.1904264 18.1445499-2.1904264zm26.4820912 7.920457c.0043497-.0638464.0075966-.1278137.0075966-.1919623 0-1.9074104-2.0097509-3.6651204-5.3910091-5.0727032v10.1454063c1.5775978-.6568437 2.8576386-1.3896259 3.7729774-2.1788179-.2694372 1.0691244-1.1907798 3.2319203-1.9253911 4.7528667-1.2073209 2.1754322-1.6446202 4.0691785-1.5885027 4.1628924.0357779.0591304.4476528-.5679063 1.0550809-1.5840672 1.4134728-1.9877021 4.0919155-5.78245 4.6272364-6.7490333.606448-1.0957271.2649649-1.6020845.2649649-1.6020845z" fill="#000" fill-rule="nonzero"/><path d="m38.7836119 0c.3103634 0 .5983078.16736027.7614436.44241911l1.6097372 2.71577554c.2528727.02201947.5050698.04846744.7571441.07743719l2.0845261-2.3354784c.2109832-.23594046.5239263-.34142478.8281474-.2791798.3051425.06279854.555497.28613008.6639675.59028169l1.0675074 2.98333054c.2480204.07436184.4929697.15216807.7368135.23323416l2.4765802-1.86076817c.2510301-.18925672.5787143-.22954374.8646319-.10517679.2867774.12362886.491557.39444373.5414314.71311097l.4908199 3.14595478c.2274442.12319831.4523701.25051759.6759447.37906701l2.7778532-1.32252131c.2824165-.13408504.6101622-.10689899.8683786.07356225.2583392.17935411.4088221.48645805.3972749.80961529l-.1071807 3.19263851c.1983303.16502301.3942652.33342889.587129.50411053l2.9775963-.7331007c.3018257-.07405431.6191911.0205433.8375449.24910293.219705.22942073.309442.56008177.2382543.87573517l-.7025402 3.1097888c.1641185.2008815.3248588.4053304.4831423.6117476l3.0569529-.111266c.3111618-.0122399.6031601.1451563.7749563.414741.1727176.2682316.2001116.6116861.0699592.9072882l-1.2655306 2.9014034c.1227818.2328651.2451336.4677599.3617118.7063452l3.0122994.5117989c.305941.0524039.5645874.2662633.6828239.5645718.1181138.2997846.0814451.6414554-.1004243.9043359l-1.7813492 2.5842738c.0525769.1765863.1035569.3544643.1545368.5325267l5.4232814 4.0005931s.8131605.4255663 0 1.943987c-.4229035.7897786-1.9591875 3.031407-3.5736777 5.330995l-.4222648.6002908c-.9862476 1.3994693-1.9681199 2.7755044-2.7121559 3.813744-.8400018 1.4281287-1.4289735 2.3254528-1.5155165 2.273664-.1372773-.0815582.1000558-2.4343815 1.7186991-5.4496341 1.1900435-2.6553143 2.6372592-6.6667326 2.0783841-6.991243 0 0-1.6205475-1.43594-4.2975464-.9551406-.0539255.0264001-.1078607.0526776-.1618053.0788331-1.9051184 5.7614744-8.8969591 8.4690264-8.8969591 8.4690264-8.1609034 9.3061781-13.5238074 2.8633921-13.5238074 2.8633921 5.5962446.1308252 8.3743435-4.1270513 8.3743435-4.1270513-6.0391558-1.5994253-8.2919157-.2860071-8.2919157-.2860071.5231896-.7599529 1.0352399-1.4160873 1.5350225-1.9794508-15.4139913.4742597-27.7327467-5.2161796-27.7327467-5.2161796l-.1939587.0927904c-1.0676011.5350753-1.5997977 1.2115864-1.5997977 1.2115864-.524479.4496769 1.7123728 4.3508749 3.4358628 6.8873578 2.2359918 2.8271031 2.9091111 5.2365743 2.7808628 5.3492549-.0295493.0258105-.1511763-.0662119-.3485957-.2574646l-.1620212-.1617546c-.3514469-.3595577-.8642664-.9319196-1.4834967-1.6543013-2.6877477-2.6086921-7.77671132-7.5879829-8.76805591-8.8440153-1.12340102-1.4239461-.35194575-2.0298506-.35194575-2.0298506l5.03786086-5.3586039c.013697-.0456996.0263499-.0917683.0401083-.1373449l-1.7818405-2.5842738c-.1805181-.2628805-.2189066-.6045513-.10067-.9043359.1189736-.299108.3770057-.5128445.6830081-.5645718l3.0121152-.5117989c.1175609-.2385853.2397285-.4734801.362756-.7063452l-1.266452-2.9014034c-.1284325-.2956021-.1023284-.6390566.0703892-.9072882.172349-.2695847.4668041-.423844.7753248-.414741l3.0570144.111266c.157792-.2064172.3187781-.4100665.4814839-.6117476l-.7011276-3.1097888c-.0708805-.3156534.0184265-.64631444.2386229-.87573517.2189066-.22855963.5359035-.32260368.8384049-.24910293l2.9771048.7331007c.1937851-.17068164.3893515-.33908752.5870676-.50411053l-.1066279-3.19263851c-.0116701-.32315724.13912-.63026118.3971521-.80961529.2569265-.18046124.5861463-.20820085.8681943-.07356225l2.7776075 1.32252131c.2242502-.129226.4492375-.2558687.6764975-.37906701l.4911885-3.14595478c.0495058-.31866724.2550839-.58948211.5406943-.71311097.2865932-.12492051.614216-.0847565.8659217.10517679l2.4757818 1.86076817c.2444579-.08057404.4895301-.15887232.7368749-.23323416l1.0683058-2.98333054c.1081635-.30415161.3587022-.52662206.6637218-.59028169.303177-.06224498.6172871.04323934.8283931.2791798l2.0848333 2.3354784c.2516443-.02896975.5050084-.05541772.7580039-.07743719l1.6101058-2.71577554c.1617231-.27505884.4502817-.44241911.759908-.44241911zm19.1278802 30.4572471-.4853945.1777113c-2.2317416.7960837-4.4628797 1.4063372-6.6703792 1.8603593.9285858.9418592 1.4393609 1.8746135 1.4393609 1.8746135l1.5771837-.3701485c1.840726-1.24049 3.1758817-2.4613407 4.1392291-3.5425356z" fill="#02002e"/><path d="m15.8778626 25.5600185s-6.75506084-2.6835014-7.89695652-5.5716315c0 0 7.92827052-6.4352536-1.5578546-13.27082975l-.25713934 8.71235195s-2.81071724-2.7668917-2.68667745-7.61202329c0 0-8.74194716 4.29223729 1.48823422 11.88663939 0 0 .34512247 4.0763162 9.54480079 8.9977648z" fill="#03003a" fill-rule="nonzero"/><g transform="translate(42.748092 20.763359)"><path d="m1.02252344 1.23404739s2.68412403-2.77660663 5.36837866 0c0 0 2.10901989 3.70220387 0 5.55308989 0 0-3.45114721 2.59153654-5.36837866 0 0 0-2.30067774-2.03614118 0-5.55308989" fill="#000"/><path d="m4.13005785 2.26408585c0 1.08099443-.67449195 1.9574247-1.50648943 1.9574247-.83186687 0-1.50642412-.87643027-1.50642412-1.9574247 0-1.08136456.67455725-1.95791822 1.50642412-1.95791822.83199748 0 1.50648943.87655366 1.50648943 1.95791822" fill="#fff" fill-rule="nonzero"/></g><g transform="translate(31.145038 20.152672)"><path d="m1.49409815.45422294s4.4668015-2.03379993 5.68600492 2.50571917c0 0 1.27710687 5.29104593-3.66819 5.58967621 0 0-6.30609134-1.24898338-2.01781492-8.09539538" fill="#000"/><path d="m3.73757182 2.41746951c0 1.17732254-.67488564 2.13217073-1.5073903 2.13217073-.83225125 0-1.50726359-.95484819-1.50726359-2.13217073 0-1.17771341.67501234-2.13230102 1.50726359-2.13230102.83250466 0 1.5073903.95458761 1.5073903 2.13230102" fill="#fff" fill-rule="nonzero"/></g></g></g></svg>