<svg width="60" height="60" fill="none" xmlns="http://www.w3.org/2000/svg">
 <path fill="#D54000" d="M0 0h60v60H0z"/>
 <path d="M30.752 48.947c-.113-.454.114-1.022-.113-1.476-.114-.454-.455-.454-.568-.795-.454-.909-1.022-1.93-1.022-3.066 0-.909-.34-1.817-.454-2.726v-1.362c0-.227 0-.455-.114-.682 0-.113 0-.34-.114-.34l.114-.341c0-.114 1.022-.114 1.363-.114.567 0 1.022 0 1.59.114 1.135 0 2.044 0 3.18-.114 2.384-.34 3.406-1.362 3.974-1.703 2.157-1.476 3.18-4.088 3.18-4.088.34-.795.34-2.271 1.135-2.839.908-.795 2.385-.681 3.407-1.136.567-.227 1.022-.454 1.703-.34.454.113 1.25.681 1.476-.114l-.34-.34c.908-.114 0-2.045-.341-2.499-.568-.568-1.363-.908-2.271-1.135-1.136-.341-2.158-.682-3.18-.455-1.817.341-1.703-.681-2.725-.681-1.25 0-3.52.113-3.975 1.363-.227.567-.34.567-.681 1.022-.227.34 0 .681-.114 1.135-.113.455-.34 2.044-.568 2.612-.34.909-.794 2.044-1.59 2.044-1.135.114-2.043.227-2.952-.113-.568-.227-1.476-.568-1.93-.682-2.158-.908-2.498-1.817-2.498-1.817-.228-.34-.795-1.022-1.023-1.817-.227-.908-.68-1.59-.794-2.044-.228-.454-.568-1.249-.909-2.044-.454-1.022-1.022-1.817-1.476-2.157-.681-.568-1.25-1.477-2.612-1.25-.227 0-1.136.114-1.817.682-.454.34-.568 1.136-1.022 1.817-.227.34-.681 1.476-1.022 2.385-.227.681-.34 1.135-.681 1.362-.227.227-.455.455-.795.341l-.682-.34c-.34-.228-1.022-1.477-1.476-2.272-.34-.795-1.135-1.93-1.59-2.498-.681-.909-1.022-1.136-2.044-1.136-2.044 0-2.27 1.136-3.18 2.84-.454.794-.567 1.93-1.362 2.838-.34.454-1.817 2.612-2.839 2.953v15.67-.113c.114-.227.114-.454.227-.568.454-.795 1.363-1.59 1.817-2.498.227-.454.568-.908.795-1.476.114-.34.227-1.022.454-1.363.227-.454.682-.568 1.136-.681.795-.114 1.362 1.022 2.27 1.476.342.227 2.159.795 2.726.908.909.228 1.817.341 2.726.568.454.114.908.114 1.476.227.454 0 2.158.114 2.158.227-.795.455-1.363 1.59-1.704 2.499-.34.908-.568 1.93-.908 2.725-.454.909-1.363 1.363-1.25 2.498 0 .455.114.909 0 1.363-.113.568-.34.909-.454 1.476-.227.682-.454 2.84-.681 3.407l1.817-.227c.227-.454.34-2.498.454-2.725a7.425 7.425 0 0 1 1.477-2.612c.68-.795.68-1.703 1.022-2.612.454-1.022 1.021-1.703 1.59-2.612 1.021-1.59 1.703-3.747 3.747-4.202.227 0 1.476.909 2.044 1.477.681.681 1.362 1.362 1.817 2.271.795 1.703 1.59 4.201 1.817 5.45.113.796.227.796.794 1.477.228.227.682 1.136.909 1.476.114.34.454 1.136.568 1.59.113.227.454 1.022.681 1.703h1.704c-.682-1.93-1.25-3.86-1.477-5.791Z" fill="#fff"/>
 <path d="M29.844 52.922c-.227-.455-.454-1.25-.568-1.59-.113-.341-.68-1.25-.908-1.477-.568-.567-.681-.681-.795-1.476-.227-1.363-1.022-3.86-1.817-5.45-.454-.91-1.135-1.59-1.817-2.272-.568-.568-1.817-1.476-2.044-1.476-2.157.454-2.725 2.498-3.747 4.202-.568.908-1.136 1.703-1.59 2.611-.454.909-.34 1.93-1.022 2.612a7.424 7.424 0 0 0-1.476 2.612c-.114.227-.228 2.271-.455 2.725l3.18-.227c2.953.227 2.044 1.363 6.7 1.136l7.268-.227c-.455-.681-.795-1.477-.909-1.703Z" fill="#D54000"/>
 <path d="M50.966 5H8.154C4.18 5 1 8.293 1 12.268v15.784c1.022-.454 2.498-2.611 2.953-3.18.794-.908.908-2.157 1.362-2.838.909-1.704 1.136-2.84 3.18-2.84 1.022 0 1.363.228 2.044 1.136.454.568 1.249 1.704 1.59 2.385.454.909 1.135 2.044 1.476 2.271.227.227.454.34.681.34.341.114.568-.113.795-.34.34-.227.455-.681.682-1.362.34-.909.795-2.044 1.022-2.385.454-.681.567-1.476 1.022-1.817.681-.568 1.476-.568 1.817-.681 1.362-.228 1.93.68 2.611 1.249.455.34 1.022 1.135 1.477 2.157.34.795.794 1.59.908 2.044.114.455.568 1.136.795 2.044.227.795.795 1.363 1.022 1.817 0 0 .34 1.022 2.498 1.817.455.227 1.363.454 1.93.682.91.34 1.818.34 2.953.113.795 0 1.25-1.135 1.59-2.044.227-.568.454-2.158.568-2.612.114-.454-.227-.795.114-1.135.34-.454.454-.454.68-1.022.341-1.25 2.726-1.363 3.975-1.363 1.022 0 .909 1.022 2.726.681 1.022-.227 2.044.114 3.18.455.908.227 1.816.567 2.27 1.135.341.34 1.136 2.385.341 2.498.114.114.114.227.34.341-.226.795-1.021.227-1.475.114-.568-.114-1.022 0-1.704.34-1.022.454-2.612.454-3.407 1.136-.794.681-.794 2.044-1.135 2.839 0 0-1.022 2.612-3.18 4.088-.567.454-1.59 1.363-3.974 1.703-1.022.114-2.044.227-3.18.114-.568 0-1.022 0-1.59-.114-.34 0-1.362 0-1.362.114l-.114.34c0 .114 0 .341.114.341 0 .227 0 .455.113.681v1.363c0 .909.34 1.817.454 2.726 0 1.022.568 2.157 1.022 3.066.227.34.455.34.568.795.114.454 0 .908.114 1.476.227 1.93.795 3.86 1.703 5.678 1.022-.227 2.158-.568 3.52-.795 2.499-.34 6.02-.227 8.29-.34 5.678-.569 8.858 2.384 13.968 1.135v-42.13C58.233 8.293 55.054 5 50.966 5Z" fill="#D54000"/>
 <path d="M14.173 45.54c.454-.908.681-1.816.908-2.725.34-.909.795-2.044 1.704-2.498-.114-.114-1.817-.227-2.158-.227-.454 0-.908-.114-1.476-.228-.909-.227-1.93-.34-2.726-.567-.567-.114-2.27-.795-2.725-.909-.909-.454-1.476-1.59-2.271-1.476-.454.114-.909.227-1.136.681-.227.34-.34 1.022-.454 1.477-.227.454-.454 1.022-.795 1.476-.568.908-1.476 1.703-1.817 2.498-.113.227-.113.34-.227.568v9.766c.454.113.908.227 1.476.34 3.975 1.023 4.997 1.136 8.971.682h.341c.34-.681.568-2.726.681-3.407.114-.454.341-.908.455-1.476.113-.454 0-.909 0-1.363-.114-1.249.795-1.703 1.249-2.612Z" fill="#D54000"/>
</svg>
