<?xml version="1.0" encoding="UTF-8"?>
<svg width="37px" height="28px" viewBox="0 0 37 28" version="1.1" xmlns="http://www.w3.org/2000/svg" xmlns:xlink="http://www.w3.org/1999/xlink">
    <!-- Generator: Sketch 52.5 (67469) - http://www.bohemiancoding.com/sketch -->
    <title>HolyJS_gradient</title>
    <desc>Created with Sketch.</desc>
    <defs>
        <linearGradient x1="-0.739595051%" y1="88.4597191%" x2="100.739595%" y2="11.466371%" id="linearGradient-1">
            <stop stop-color="#0096FF" offset="0%"></stop>
            <stop stop-color="#F644D1" offset="100%"></stop>
        </linearGradient>
    </defs>
    <g id="Page-1" stroke="none" stroke-width="1" fill="none" fill-rule="evenodd">
        <g id="HolyJS_gradient" fill="url(#linearGradient-1)">
            <path d="M2.98,6.32 L2.98,14.73 L0.62,17.48 L2.98,19.46 L2.98,27.94 L21.44,24.69 L30.06,27.83 L30.06,23.17 L33.79,22.5 L33.79,14.08 L36.18,11.3 L33.79,9.31 L33.79,0.88 L2.98,6.33 L2.98,6.32 Z M4.22,18.78 L2.36,17.23 L4.22,15.07 L4.22,7.35 L32.54,2.34 L32.54,9.99 L34.41,11.55 L32.54,13.72 L32.54,21.46 L28.81,22.13 L28.81,26.04 L21.57,23.4 L4.22,26.46 L4.22,18.77 L4.22,18.78 Z M28.85,5.48 L28.85,6.33 C28.85,6.49 28.82,6.65 28.73,6.79 L27.6,8.71 L26.46,7.16 C26.38,7.05 26.36,6.89 26.36,6.76 L26.36,5.92 L25.13,6.14 L25.13,7.04 C25.13,7.28 25.17,7.52 25.31,7.72 L26.97,9.98 L26.97,12.05 L28.21,11.83 L28.21,9.76 L29.87,6.95 C30,6.73 30.05,6.48 30.05,6.23 L30.05,5.28 L28.84,5.49 L28.85,5.48 Z M20.62,6.93 L20.62,13.16 L24.86,12.41 L24.86,11.28 L21.86,11.81 L21.86,6.72 L20.62,6.94 L20.62,6.93 Z M16.98,7.56 L15.22,7.87 C14.23,8.05 13.67,8.71 13.67,9.71 L13.67,12.75 C13.67,13.77 14.26,14.27 15.27,14.09 L17.03,13.78 C18.02,13.6 18.58,12.94 18.58,11.94 L18.58,8.9 C18.58,8.01 18.14,7.52 17.37,7.52 C17.25,7.52 17.12,7.53 16.99,7.56 L16.98,7.56 Z M14.91,12.6 L14.91,9.49 C14.91,9.19 15.05,9.03 15.34,8.98 L16.94,8.7 C17.21,8.65 17.33,8.74 17.33,9.02 L17.33,12.16 C17.33,12.46 17.19,12.62 16.89,12.67 L15.29,12.95 C15.25,12.96 15.21,12.96 15.17,12.96 C14.97,12.96 14.91,12.84 14.91,12.6 Z M10.36,8.73 L10.36,11.15 L7.94,11.58 L7.94,9.16 L6.7,9.38 L6.7,15.61 L7.94,15.39 L7.94,12.72 L10.36,12.29 L10.36,14.96 L11.6,14.74 L11.6,8.51 L10.36,8.73 Z M23.41,13.86 L20.76,21.36 L22.04,21.13 L24.69,13.63 L23.41,13.85 L23.41,13.86 Z M16.98,15.43 L15.26,15.73 C14.32,15.9 13.71,16.47 13.71,17.46 L13.71,17.91 C13.71,18.59 14.02,19.05 14.72,19.11 L17.11,19.31 C17.27,19.32 17.33,19.39 17.33,19.55 L17.33,20.18 C17.33,20.47 17.15,20.58 16.88,20.63 L15.27,20.91 C15.03,20.95 14.87,20.94 14.87,20.66 L14.87,19.8 L13.65,20.02 L13.65,20.8 C13.65,21.81 14.28,22.19 15.23,22.02 L17.02,21.7 C17.97,21.53 18.58,20.96 18.58,19.97 L18.58,19.22 C18.58,18.53 18.18,18.16 17.51,18.1 L15.16,17.9 C14.95,17.88 14.94,17.82 14.94,17.62 L14.94,17.25 C14.94,16.96 15.12,16.85 15.39,16.8 L16.93,16.53 C17.17,16.49 17.33,16.5 17.33,16.78 L17.33,17.7 L18.55,17.48 L18.55,16.64 C18.55,15.79 18.08,15.38 17.36,15.38 C17.24,15.38 17.11,15.39 16.97,15.42 L16.98,15.43 Z M10.35,16.6 L10.35,21.29 C10.35,21.6 10.21,21.76 9.91,21.81 L8.31,22.09 C8.03,22.14 7.92,22.05 7.92,21.76 L7.92,20.75 L6.69,20.97 L6.69,21.9 C6.69,22.92 7.28,23.42 8.29,23.24 L10.05,22.93 C11.04,22.75 11.6,22.09 11.6,21.09 L11.6,16.38 L10.36,16.6 L10.35,16.6 Z M28.79,18.53 L28.79,19.62 L30.03,19.4 L30.03,18.31 L28.79,18.53 Z M26.68,18.9 L26.68,19.99 L27.92,19.77 L27.92,18.68 L26.68,18.9 Z M24.57,19.27 L24.57,20.36 L25.81,20.14 L25.81,19.05 L24.57,19.27 Z" id="Shape"></path>
        </g>
    </g>
</svg>