<svg width="680" height="675" viewBox="0 0 680 675" fill="none" xmlns="http://www.w3.org/2000/svg">
<g clip-path="url(#clip0_34_141)">
<path opacity="0.6" fill-rule="evenodd" clip-rule="evenodd" d="M680 340C680 527.776 527.987 680 340.471 680C152.955 680 0.942871 527.776 0.942871 340C0.942871 152.224 152.955 0 340.471 0C527.987 0 680 152.224 680 340Z" fill="#0024FF"/>
<path d="M35.8761 188.497C4.7336 250.328 -5.83992 322.092 4.01342 390.738" stroke="#5F76FF" stroke-width="0.787765" stroke-linecap="round" stroke-linejoin="round"/>
<path d="M52.4878 159.003C48.6695 165.057 45.0416 171.23 41.6123 177.512" stroke="#5F76FF" stroke-width="0.787765" stroke-linecap="round" stroke-linejoin="round"/>
<path d="M187.898 36.8145C148.064 56.2097 113.994 84.445 85.0024 116.907" stroke="#5F76FF" stroke-width="0.787765" stroke-linecap="round" stroke-linejoin="round"/>
<path d="M551.032 73.857C460.57 -1.43713 337.212 -16.7313 230.724 19.1499" stroke="#5F76FF" stroke-width="0.787765" stroke-linecap="round" stroke-linejoin="round"/>
<path d="M678.086 357.816C680.265 323.269 676.74 287.975 667.787 255.167" stroke="#5F76FF" stroke-width="0.787765" stroke-linecap="round" stroke-linejoin="round"/>
<path d="M36.0205 491.503C4.87912 429.672 -5.6944 357.908 4.15895 289.262" stroke="#5F76FF" stroke-width="0.787765" stroke-linecap="round" stroke-linejoin="round"/>
<path d="M52.6338 520.998C48.8155 514.944 45.1876 508.771 41.7583 502.488" stroke="#5F76FF" stroke-width="0.787765" stroke-linecap="round" stroke-linejoin="round"/>
<path d="M188.044 643.186C148.21 623.79 114.139 595.555 85.1479 563.093" stroke="#5F76FF" stroke-width="0.787765" stroke-linecap="round" stroke-linejoin="round"/>
<path d="M551.178 606.144C460.716 681.438 337.358 696.732 230.87 660.851" stroke="#5F76FF" stroke-width="0.787765" stroke-linecap="round" stroke-linejoin="round"/>
<path d="M678.232 322.185C680.411 356.732 676.886 392.026 667.933 424.834" stroke="#5F76FF" stroke-width="0.787765" stroke-linecap="round" stroke-linejoin="round"/>
<g clip-path="url(#clip1_34_141)">
<path fill-rule="evenodd" clip-rule="evenodd" d="M422.679 754.953L424.814 716.11C425.9 692.767 422.078 626.857 418.352 583.872C417.477 573.77 416.606 564.929 415.807 558.211C414.841 550.092 415.563 544.178 416.384 538.469C417.223 532.63 418.167 527.002 417.512 519.449C416.375 506.339 424.331 471.567 424.331 471.567C451.609 420.453 437.402 343.88 437.402 343.88C444.79 334.759 439.675 311.958 439.675 311.958C441.948 309.678 441.948 300.557 441.948 300.557C453.314 286.877 466.953 246.404 466.953 246.404C476.045 236.144 481.16 204.222 481.16 204.222C493.094 175.721 498.777 143.799 482.865 136.388C466.953 128.978 451.041 159.19 451.041 172.87C451.041 186.551 430.014 224.173 427.173 232.724C424.867 239.662 411.334 255.235 406.314 260.858C406.084 248.51 402.042 240.467 400.463 232.154C398.19 220.183 382.278 216.193 372.618 214.483C365.956 213.303 355.784 219.44 350.108 223.366C349.879 222.583 349.621 221.887 349.318 221.323C337.607 199.509 332.838 200.802 320.335 200.232C307.833 199.662 298.172 209.922 290.785 215.623C283.397 221.323 272.6 258.375 269.19 257.235C265.78 256.095 258.393 211.633 256.119 198.522C253.846 185.411 248.732 173.44 248.163 159.19C247.595 144.939 241.912 127.838 241.912 127.838C239.071 85.0857 232.251 64.5646 211.225 65.1346C190.198 65.7046 189.63 99.3365 191.903 110.737C194.176 122.138 193.608 129.548 195.313 178.001C197.018 226.453 207.815 265.786 210.657 278.326C213.498 290.867 212.362 298.277 212.362 311.958C212.362 325.639 218.044 348.44 218.044 348.44C221.454 444.205 256.972 495.223 259.529 499.213C262.086 503.203 261.234 509.759 260.666 514.889C260.316 518.052 261.585 523.706 262.61 527.579C262.001 531.851 260.84 544.535 261.802 575.882C262.719 605.79 254.01 686.211 250.616 716.11C250.616 716.11 248.973 738.53 248.784 754.953" fill="white"/>
<path d="M341.63 314.362C335.379 354.835 347.046 368.204 368.64 369.914C387.471 371.405 392.508 351.673 393.077 342.553C393.645 333.432 397.623 304.361 403.874 279.849C405.78 272.372 406.418 266.115 406.319 260.689" stroke="#2700C3" stroke-width="0.54" stroke-linecap="round" stroke-linejoin="round"/>
<path d="M232.536 334.857C232.536 334.857 242.481 354.144 253.089 341.983C253.089 341.983 269.669 318.046 282.829 293.53C290.785 278.709 302.719 259.328 328.86 257.048C355.001 254.768 376.056 244.2 382.279 243.367C390.803 242.227 406.715 246.788 402.737 271.869C399.479 292.414 383.415 300.371 370.913 306.641C362.226 310.997 333.975 315.761 333.975 315.761C333.975 315.761 335.111 345.973 326.019 356.519" stroke="#2700C3" stroke-width="0.779827" stroke-linecap="round" stroke-linejoin="round"/>
<path d="M348.75 478.22C372.727 446.352 372.835 415.991 367.582 394.411C364.497 381.737 359.563 372.093 356.53 366.95" stroke="#2700C3" stroke-width="0.779827" stroke-linecap="round" stroke-linejoin="round"/>
<path d="M350.116 223.179C352.251 230.512 351.286 246.412 350.739 253.247" stroke="#2700C3" stroke-width="0.779827" stroke-linecap="round" stroke-linejoin="round"/>
<path d="M237.084 370.7C237.084 370.7 223.113 398.56 237.404 429.554" stroke="#2700C3" stroke-width="0.54" stroke-linecap="round" stroke-linejoin="round"/>
<path fill-rule="evenodd" clip-rule="evenodd" d="M356.99 258.473C356.99 258.473 364.378 267.024 366.367 276.714C366.367 276.714 368.356 282.985 375.175 282.13C381.995 281.275 410.376 274.012 399.043 253.343C389.666 236.242 373.186 249.068 363.525 251.918C358.611 253.367 355.569 255.053 356.99 258.473Z" stroke="#2700C3" stroke-width="0.779827" stroke-linecap="round" stroke-linejoin="round"/>
<path fill-rule="evenodd" clip-rule="evenodd" d="M354.053 332.292C354.053 332.292 351.449 340.273 352.87 350.248C353.603 355.398 358.127 362.219 368.924 362.789C379.721 363.359 383.624 358.356 385.688 353.526C387.393 349.536 389.614 338.119 387.961 332.483C385.12 322.792 358.599 318.802 354.053 332.292Z" stroke="#2700C3" stroke-width="0.779827" stroke-linecap="round" stroke-linejoin="round"/>
<path d="M284.912 236.717C284.912 236.717 284.211 240.9 289.137 246.981" stroke="#2700C3" stroke-width="0.54" stroke-linecap="round" stroke-linejoin="round"/>
<path d="M295.142 235.957C295.142 235.957 283.701 241.848 287.992 284.536" stroke="#2700C3" stroke-width="0.54" stroke-linecap="round" stroke-linejoin="round"/>
<path d="M222.401 194.535C222.401 194.535 231.115 195.294 240.586 191.494" stroke="#2700C3" stroke-width="0.54" stroke-linecap="round" stroke-linejoin="round"/>
<path d="M217.477 127.651C217.477 127.651 228.084 126.511 232.252 127.651" stroke="#2700C3" stroke-width="0.779827" stroke-linecap="round" stroke-linejoin="round"/>
<path d="M465.626 182.754C465.626 182.754 472.446 183.894 473.961 186.555" stroke="#2700C3" stroke-width="0.54" stroke-linecap="round" stroke-linejoin="round"/>
<path d="M444.79 228.356C444.79 228.356 458.049 232.537 459.186 237.858" stroke="#2700C3" stroke-width="0.54" stroke-linecap="round" stroke-linejoin="round"/>
<path d="M441.92 300.379C441.041 298.312 439.102 295.343 434.939 293.72" stroke="#2700C3" stroke-width="0.54" stroke-linecap="round" stroke-linejoin="round"/>
<path d="M437.373 343.715C436.081 341.975 434.373 340.127 432.287 338.847" stroke="#2700C3" stroke-width="0.54" stroke-linecap="round" stroke-linejoin="round"/>
<path d="M328.86 305.501C328.86 305.501 329.713 311.486 333.975 315.762" stroke="#2700C3" stroke-width="0.54" stroke-linecap="round" stroke-linejoin="round"/>
<path d="M333.975 315.761C327.439 317.186 323.177 314.336 323.177 314.336" stroke="#2700C3" stroke-width="0.54" stroke-linecap="round" stroke-linejoin="round"/>
<path d="M330.651 347.248C329.609 348.081 326.954 349.833 323.461 349.394" stroke="#2700C3" stroke-width="0.54" stroke-linecap="round" stroke-linejoin="round"/>
<path d="M316.499 267.336C317.753 268.424 322.652 275.068 324.74 282.956" stroke="#2700C3" stroke-width="0.54" stroke-linecap="round" stroke-linejoin="round"/>
<path d="M295.52 487.15C300.824 487.15 345.529 478.79 356.138 444.588" stroke="#2700C3" stroke-width="0.54" stroke-linecap="round" stroke-linejoin="round"/>
<path d="M260.771 502.04C264.759 503.432 277.593 507.544 288.322 506.912" stroke="#2700C3" stroke-width="0.779827" stroke-linecap="round" stroke-linejoin="round"/>
<path d="M424.364 471.403C420.883 476.338 415.069 483.038 406.813 487.604" stroke="#2700C3" stroke-width="0.54" stroke-linecap="round" stroke-linejoin="round"/>
<path d="M322.041 493.99C322.041 493.99 347.045 487.91 369.776 491.71" stroke="#2700C3" stroke-width="0.779827" stroke-linecap="round" stroke-linejoin="round"/>
<path d="M225.811 273.579C225.811 273.579 247.027 276.62 256.12 267.499" stroke="#2700C3" stroke-width="0.779827" stroke-linecap="round" stroke-linejoin="round"/>
<path fill-rule="evenodd" clip-rule="evenodd" d="M275.529 314.387C275.583 314.775 275.617 314.971 275.698 315.363C275.764 315.68 275.879 315.824 276.031 315.791C276.184 315.761 276.372 315.57 276.595 315.218C276.807 314.883 276.952 314.543 277.033 314.2C277.115 313.857 277.116 313.531 277.049 313.223C276.966 312.832 276.929 312.637 276.876 312.251C276.339 313.1 276.071 313.527 275.529 314.387ZM272.946 320.841C273.623 318.952 273.974 318.014 274.696 316.156C274.672 316.012 274.662 315.94 274.644 315.796C273.831 317.089 273.422 317.74 272.602 319.05C272.522 318.42 272.499 318.107 272.496 317.491C274.662 314.031 275.735 312.321 277.818 309.025C277.837 310.054 277.91 310.582 278.158 311.657C278.276 312.173 278.332 312.727 278.301 313.319C278.271 313.912 278.169 314.501 277.981 315.085C277.793 315.671 277.536 316.223 277.207 316.744C276.816 317.36 276.429 317.754 276.06 317.919C275.692 318.084 275.371 317.992 275.132 317.643C274.455 319.626 274.129 320.627 273.5 322.639C273.237 321.914 273.125 321.554 272.946 320.841Z" fill="#2700C3"/>
<path fill-rule="evenodd" clip-rule="evenodd" d="M278.98 318.17C278.526 318.881 278.297 319.238 277.841 319.952C278.311 320.887 278.576 321.358 279.152 322.307C278.752 322.931 278.551 323.244 278.149 323.871C277.575 322.922 277.311 322.451 276.844 321.516C276.358 322.279 276.114 322.662 275.627 323.431C276.147 324.483 276.446 325.014 277.102 326.081C276.672 326.752 276.456 327.087 276.026 327.759C274.958 326.016 274.503 325.149 273.811 323.448C276.006 319.971 277.097 318.249 279.238 314.892C279.963 316.579 280.438 317.442 281.54 319.188C281.12 319.838 280.908 320.164 280.487 320.819C279.818 319.751 279.514 319.219 278.98 318.17Z" fill="#2700C3"/>
<path fill-rule="evenodd" clip-rule="evenodd" d="M281.537 329.506C282.083 327.893 282.358 327.088 282.906 325.48C281.809 326.374 281.265 326.823 280.181 327.728C280.702 328.439 280.974 328.794 281.537 329.506ZM280.854 331.523C280 330.461 279.593 329.93 278.833 328.871C278.299 329.323 278.033 329.551 277.501 330.006C277 329.29 276.76 328.931 276.309 328.216C279.168 325.801 280.626 324.618 283.601 322.295C284.19 323.087 284.498 323.485 285.138 324.28C283.758 328.69 283.071 330.914 281.718 335.34C281.087 334.617 280.779 334.254 280.185 333.528C280.452 332.725 280.586 332.325 280.854 331.523Z" fill="#2700C3"/>
<path fill-rule="evenodd" clip-rule="evenodd" d="M292.636 333.727C292.832 334.868 292.69 335.995 292.203 337.113C291.485 336.41 291.128 336.056 290.421 335.344C290.556 334.826 290.564 334.321 290.447 333.825C290.331 333.329 290.089 332.893 289.726 332.515C289.248 332.017 288.72 331.831 288.137 331.962C287.554 332.093 287.018 332.526 286.524 333.26C286.031 333.994 285.778 334.731 285.769 335.469C285.762 336.209 285.992 336.823 286.467 337.313C286.828 337.686 287.218 337.895 287.638 337.944C288.055 337.992 288.458 337.89 288.848 337.643C289.552 338.349 289.91 338.699 290.626 339.394C289.805 340.169 288.909 340.556 287.946 340.552C286.982 340.549 286.066 340.116 285.212 339.24C284.562 338.571 284.123 337.798 283.892 336.921C283.66 336.043 283.64 335.132 283.827 334.194C284.013 333.254 284.388 332.361 284.95 331.52C285.51 330.679 286.134 330.074 286.83 329.705C287.522 329.334 288.229 329.231 288.956 329.391C289.683 329.552 290.376 329.978 291.035 330.665C291.9 331.565 292.44 332.584 292.636 333.727Z" fill="#2700C3"/>
<path fill-rule="evenodd" clip-rule="evenodd" d="M300.345 339.849C299.896 340.477 299.672 340.789 299.228 341.414C298.465 340.714 298.081 340.358 297.312 339.639C295.438 342.287 294.511 343.598 292.663 346.227C291.973 345.608 291.626 345.294 290.937 344.661C292.787 342.006 293.713 340.681 295.585 338.015C294.821 337.29 294.439 336.924 293.681 336.186C294.125 335.546 294.348 335.226 294.793 334.585C297.009 336.748 298.147 337.81 300.345 339.849Z" fill="#2700C3"/>
<path fill-rule="evenodd" clip-rule="evenodd" d="M265.309 333.634C265.678 333.543 266.123 333.097 266.624 332.296C267.126 331.495 267.459 330.697 267.641 329.904C267.823 329.111 267.838 328.398 267.731 327.773C267.678 327.471 267.655 327.32 267.62 327.019C266.36 329.038 265.728 330.049 264.469 332.069C264.503 332.372 264.526 332.523 264.576 332.827C264.68 333.454 264.94 333.726 265.309 333.634ZM265.587 335.84C265.061 336.226 264.59 336.34 264.197 336.185C263.808 336.029 263.533 335.593 263.406 334.883C263.23 333.876 263.185 333.377 263.189 332.394C265.385 328.875 266.494 327.096 268.69 323.579C268.69 324.548 268.74 325.043 268.926 326.044C269.056 326.754 269.107 327.56 269.037 328.454C268.969 329.347 268.791 330.272 268.48 331.226C268.169 332.176 267.745 333.087 267.199 333.955C266.655 334.825 266.114 335.452 265.587 335.84Z" fill="#2700C3"/>
<path fill-rule="evenodd" clip-rule="evenodd" d="M268.895 339.932C269.505 338.289 269.814 337.467 270.433 335.825C269.404 336.772 268.894 337.248 267.881 338.202C268.259 338.893 268.462 339.24 268.895 339.932ZM268.136 341.986C267.471 340.953 267.166 340.434 266.625 339.404C266.128 339.878 265.88 340.116 265.388 340.592C265.035 339.893 264.876 339.544 264.59 338.848C267.207 336.33 268.563 335.063 271.333 332.585C271.756 333.357 271.985 333.744 272.476 334.521C270.899 339.026 270.128 341.285 268.626 345.797C268.108 345.09 267.859 344.737 267.391 344.028C267.688 343.211 267.836 342.803 268.136 341.986Z" fill="#2700C3"/>
<path fill-rule="evenodd" clip-rule="evenodd" d="M279.87 343.624C277.452 344.968 276.256 345.654 273.903 347.043C273.147 348.203 272.769 348.783 272.013 349.948C271.428 349.295 271.143 348.965 270.593 348.304C271.348 347.136 271.724 346.552 272.478 345.389C273.206 342.105 273.584 340.457 274.372 337.16C274.944 337.932 275.244 338.318 275.867 339.088C275.378 341.038 275.138 342.013 274.666 343.958C276.042 343.067 276.736 342.624 278.137 341.748C278.812 342.504 279.16 342.879 279.87 343.624Z" fill="#2700C3"/>
<path fill-rule="evenodd" clip-rule="evenodd" d="M257.247 343.631C257.289 344.061 257.318 344.277 257.391 344.71C257.487 345.283 257.751 345.263 258.141 344.64C258.529 344.019 258.65 343.412 258.551 342.83C258.479 342.408 258.451 342.197 258.408 341.779C257.942 342.522 257.71 342.894 257.247 343.631ZM256.061 348.174C256.253 347.87 256.385 347.546 256.46 347.21C256.535 346.872 256.543 346.554 256.493 346.257C256.413 345.786 256.381 345.551 256.337 345.083C255.856 345.85 255.617 346.231 255.14 346.99C255.184 347.465 255.214 347.705 255.292 348.184C255.394 348.806 255.665 348.806 256.061 348.174ZM257.062 348.49C256.895 349.12 256.657 349.687 256.343 350.191C255.879 350.932 255.454 351.307 255.086 351.315C254.716 351.326 254.441 350.952 254.309 350.203C254.079 348.895 254.022 348.245 254.054 346.96C256.138 343.661 257.212 341.95 259.379 338.487C259.368 339.687 259.433 340.297 259.677 341.526C259.814 342.214 259.84 342.946 259.71 343.714C259.58 344.484 259.299 345.227 258.85 345.944C258.52 346.471 258.211 346.798 257.927 346.926C257.643 347.054 257.418 346.989 257.263 346.739C257.289 347.276 257.227 347.861 257.062 348.49Z" fill="#2700C3"/>
<path fill-rule="evenodd" clip-rule="evenodd" d="M260.27 348.088C259.807 348.826 259.577 349.195 259.116 349.929C259.548 350.867 259.792 351.338 260.329 352.274C259.924 352.917 259.722 353.24 259.318 353.882C258.785 352.942 258.542 352.47 258.115 351.528C257.628 352.304 257.385 352.692 256.901 353.466C257.377 354.533 257.651 355.069 258.258 356.132C257.83 356.813 257.617 357.154 257.189 357.834C256.206 356.082 255.791 355.197 255.171 353.436C257.321 350.002 258.416 348.25 260.62 344.73C261.277 346.439 261.712 347.301 262.736 349.015C262.306 349.697 262.093 350.036 261.664 350.717C261.042 349.667 260.761 349.14 260.27 348.088Z" fill="#2700C3"/>
<path fill-rule="evenodd" clip-rule="evenodd" d="M261.876 355.67C262.165 356.08 262.313 356.285 262.617 356.694C262.861 357.023 263.106 357.169 263.346 357.133C263.584 357.098 263.822 356.897 264.057 356.528C264.281 356.176 264.396 355.821 264.402 355.463C264.407 355.107 264.286 354.768 264.045 354.446C263.738 354.038 263.589 353.834 263.298 353.424C262.728 354.321 262.444 354.771 261.876 355.67ZM260.18 362.361C260.583 360.42 260.788 359.451 261.215 357.516C261.107 357.365 261.053 357.29 260.949 357.137C260.101 358.478 259.678 359.147 258.835 360.486C258.38 359.814 258.162 359.475 257.751 358.797C259.964 355.275 261.083 353.502 263.321 349.959C264.048 351.094 264.448 351.66 265.304 352.784C265.713 353.323 265.998 353.896 266.145 354.508C266.292 355.12 266.31 355.728 266.195 356.333C266.08 356.938 265.848 357.514 265.499 358.06C265.086 358.706 264.62 359.122 264.105 359.306C263.591 359.492 263.069 359.409 262.557 359.059C262.173 361.105 261.989 362.128 261.626 364.181C261.026 363.46 260.736 363.095 260.18 362.361Z" fill="#2700C3"/>
<path fill-rule="evenodd" clip-rule="evenodd" d="M264.811 364.915C265.605 365.757 266.015 366.173 266.855 366.992C266.424 367.66 266.208 367.995 265.778 368.668C264.315 367.231 263.611 366.491 262.304 364.981C264.592 361.383 265.734 359.6 268.014 356.059C268.588 356.702 268.884 357.021 269.488 357.654C267.623 360.533 266.687 361.985 264.811 364.915Z" fill="#2700C3"/>
<path fill-rule="evenodd" clip-rule="evenodd" d="M273.952 361.947C271.641 365.452 270.478 367.23 268.129 370.868C267.471 370.28 267.147 369.98 266.508 369.373C268.844 365.741 270 363.96 272.306 360.443C272.954 361.052 273.285 361.353 273.952 361.947Z" fill="#2700C3"/>
<path fill-rule="evenodd" clip-rule="evenodd" d="M275.612 376.789C274.911 376.298 274.56 376.048 273.861 375.53C274.158 372.429 274.295 370.884 274.577 367.78C273.144 369.95 272.423 371.051 270.968 373.289C270.285 372.733 269.945 372.45 269.275 371.874C271.633 368.231 272.797 366.456 275.112 362.962C275.789 363.544 276.132 363.832 276.821 364.396C276.539 367.494 276.402 369.029 276.115 372.104C277.574 369.897 278.295 368.816 279.729 366.683C280.429 367.213 280.78 367.471 281.48 367.977C279.17 371.395 278.003 373.144 275.612 376.789Z" fill="#2700C3"/>
<path d="M332.039 340.593C334.318 342.167 338.404 345.16 341.818 348.576" stroke="#2700C3" stroke-width="0.54" stroke-linecap="round" stroke-linejoin="round"/>
<path d="M310.443 274.065C310.443 274.065 319.43 278.424 320.62 285.549C320.62 285.549 316.126 280.051 313.853 279.808C311.579 279.564 319.714 283.554 320.62 290.965" stroke="#2700C3" stroke-width="0.54" stroke-linecap="round" stroke-linejoin="round"/>
<path d="M354.201 255.053C354.201 255.053 353.064 256.763 354.201 259.043C355.338 261.323 361.589 267.023 363.009 275.146C364.43 283.269 371.818 284.536 371.818 284.536" stroke="#2700C3" stroke-width="0.54" stroke-linecap="round" stroke-linejoin="round"/>
<path d="M356.64 266.453C356.64 266.453 359.883 267.878 361.304 275.146" stroke="#2700C3" stroke-width="0.54" stroke-linecap="round" stroke-linejoin="round"/>
<path d="M362.756 266.453L390.003 255.053" stroke="#2700C3" stroke-width="0.54" stroke-linecap="round" stroke-linejoin="round"/>
<path d="M376.379 263.416L399.043 253.343" stroke="#2700C3" stroke-width="0.54" stroke-linecap="round" stroke-linejoin="round"/>
<path d="M356.99 258.473C356.99 258.473 366.703 255.053 370.495 263.674" stroke="#2700C3" stroke-width="0.54" stroke-linecap="round" stroke-linejoin="round"/>
<path d="M373.139 267.336C373.139 267.336 375.796 272.921 371.818 281.944" stroke="#2700C3" stroke-width="0.54" stroke-linecap="round" stroke-linejoin="round"/>
<path d="M245.943 191.494C245.943 191.494 239.302 199.855 222.401 199.76C222.401 199.76 240.544 199.76 243.669 196.909" stroke="#2700C3" stroke-width="0.779827" stroke-linecap="round" stroke-linejoin="round"/>
<path d="M232.252 125.086C232.252 125.086 224.064 123.091 215.54 125.086" stroke="#2700C3" stroke-width="0.779827" stroke-linecap="round" stroke-linejoin="round"/>
<path d="M261.876 260.753C261.876 260.753 272.488 252.329 267.882 260.247C263.275 268.163 258.584 269.795 258.584 269.795" stroke="#2700C3" stroke-width="0.54" stroke-linecap="round" stroke-linejoin="round"/>
<path d="M263.812 278.709C263.812 278.709 271.425 259.871 269.489 257.053" stroke="#2700C3" stroke-width="0.54" stroke-linecap="round" stroke-linejoin="round"/>
<path d="M262.611 527.392C262.611 527.392 263.844 532.373 278.335 535.223" stroke="#2700C3" stroke-width="0.54" stroke-linecap="round" stroke-linejoin="round"/>
<path d="M392.844 499.312C392.844 499.312 390.287 502.591 390.287 512.637" stroke="#2700C3" stroke-width="0.54" stroke-linecap="round" stroke-linejoin="round"/>
<path d="M406.813 511.282C406.813 511.282 405.346 512.992 403.073 528.668C400.8 544.344 403.073 535.224 403.073 535.224" stroke="#2700C3" stroke-width="0.54" stroke-linecap="round" stroke-linejoin="round"/>
<path d="M327.776 497.031C327.776 497.031 325.218 497.794 327.776 535.223" stroke="#2700C3" stroke-width="0.54" stroke-linecap="round" stroke-linejoin="round"/>
<path d="M350.791 497.031C350.791 497.031 354.769 502.026 350.791 531.307" stroke="#2700C3" stroke-width="0.54" stroke-linecap="round" stroke-linejoin="round"/>
<path d="M415.588 544.874C415.588 544.874 417.248 548.619 402.063 549.189C402.063 549.189 397.39 547.764 397.959 569.14" stroke="#2700C3" stroke-width="0.54" stroke-linecap="round" stroke-linejoin="round"/>
<path d="M378.123 338.661C381.842 338.058 385.35 336.566 388.543 334.585" stroke="#2700C3" stroke-width="0.54" stroke-linecap="round" stroke-linejoin="round"/>
<path d="M355.986 328.817C359.164 333.84 363.967 337.127 369.733 338.412" stroke="#2700C3" stroke-width="0.54" stroke-linecap="round" stroke-linejoin="round"/>
<path d="M372.912 323.812C372.912 323.812 374.847 328.871 371.817 356.518" stroke="#2700C3" stroke-width="0.54" stroke-linecap="round" stroke-linejoin="round"/>
<path d="M376.379 324.414C376.379 324.414 377.743 329.539 375.349 362.362" stroke="#2700C3" stroke-width="0.54" stroke-linecap="round" stroke-linejoin="round"/>
<path d="M356.99 325.554C356.99 325.554 362.343 320.321 369.732 321.081C377.121 321.841 385.799 323.417 387.711 327.76" stroke="#2700C3" stroke-width="0.54" stroke-linecap="round" stroke-linejoin="round"/>
<path d="M241.913 127.651C241.913 127.651 238.129 125.023 229.81 124.643" stroke="#2700C3" stroke-width="0.779827" stroke-linecap="round" stroke-linejoin="round"/>
<path d="M432.288 303.221C432.288 303.221 438.353 303.205 439.675 311.771" stroke="#2700C3" stroke-width="0.54" stroke-linecap="round" stroke-linejoin="round"/>
<path d="M451.988 238.214C451.988 238.214 456.766 239.06 459.186 243.21" stroke="#2700C3" stroke-width="0.54" stroke-linecap="round" stroke-linejoin="round"/>
<path d="M465.626 188.454H469.794C469.794 188.454 473.351 187.694 475.624 191.494" stroke="#2700C3" stroke-width="0.54" stroke-linecap="round" stroke-linejoin="round"/>
<path d="M323.462 504.508C323.462 504.508 336.184 504.903 331.417 505.611C326.65 506.319 317.537 510.322 323.462 509.607C329.385 508.893 331.42 509.75 332.486 509.607" stroke="#2700C3" stroke-width="0.54" stroke-linecap="round" stroke-linejoin="round"/>
<path d="M356.99 504.508C356.99 504.508 339.994 504.629 354.769 507.099C354.769 507.099 361.083 506.392 351.674 509.693" stroke="#2700C3" stroke-width="0.54" stroke-linecap="round" stroke-linejoin="round"/>
<path d="M369.776 543.013C369.776 543.013 379.774 540.733 380.531 535.223C381.289 529.713 387.918 520.132 390.287 527.392C390.287 527.392 390.476 531.612 391.566 535.223C392.654 538.833 402.203 541.114 404.437 543.013C406.672 544.913 411.909 540.932 409.556 544.873C407.202 548.816 402.062 549.189 402.062 549.189" stroke="#2700C3" stroke-width="0.54" stroke-linecap="round" stroke-linejoin="round"/>
<path d="M369.777 537.861H358.179C358.179 537.861 354.503 540.353 359.561 543.394C364.619 546.433 375.985 550.054 377.501 555.464C379.016 560.875 381.289 565.626 379.774 569.14C378.258 572.654 382.804 581.775 383.184 584.436C383.562 587.096 386.895 598.416 389.964 592.946C393.033 587.476 396.443 590.896 396.064 596.596C395.686 602.296 395.589 606.477 397.91 612.177C400.232 617.878 401.824 623.198 404.437 612.177C404.437 612.177 404.302 609.137 406.813 606.857C409.325 604.577 408.775 603.817 406.776 595.077C404.778 586.336 397.833 573.678 402.062 553.976" stroke="#2700C3" stroke-width="0.54" stroke-linecap="round" stroke-linejoin="round"/>
<path d="M411.049 296.226C411.049 296.226 405.098 294.623 400.104 297.863" stroke="#2700C3" stroke-width="0.54" stroke-linecap="round" stroke-linejoin="round"/>
<path d="M400.104 329.915C400.104 329.915 396.189 329.295 394.231 331.507" stroke="#2700C3" stroke-width="0.54" stroke-linecap="round" stroke-linejoin="round"/>
<path d="M284.878 357.834C284.878 357.834 291.918 377.325 279.87 383.025C267.821 388.725 272.495 416.657 272.495 416.657C272.495 416.657 292.274 483.35 284.878 499.311" stroke="#2700C3" stroke-width="0.54" stroke-linecap="round" stroke-linejoin="round"/>
<path d="M341.817 375.044C341.817 375.044 330.97 372.194 330.652 382.455C330.333 392.715 343.866 425.349 345.909 429.554C347.95 433.757 353.964 438.318 356.639 434.327C359.316 430.337 363.174 413.841 358.971 405.273C354.769 396.705 351.485 381.315 345.738 380.174C339.994 379.034 340.113 375.614 336.928 379.034L333.743 382.455" stroke="#2700C3" stroke-width="0.54" stroke-linecap="round" stroke-linejoin="round"/>
<path d="M408.493 478.22C408.493 478.22 405.956 479.36 408.493 468.815C411.029 458.269 414.439 452.569 412.45 437.178C410.461 421.787 405.48 396.991 415.642 400.126C415.642 400.126 418.132 401.008 422.395 399.856C426.657 398.701 428.646 399.556 429.214 402.691C429.782 405.826 425.546 470.81 415.588 458.269C415.588 458.269 413.586 457.129 413.302 461.689C413.018 466.25 409.082 472.805 408.493 481.355" stroke="#2700C3" stroke-width="0.54" stroke-linecap="round" stroke-linejoin="round"/>
<path d="M417.28 497.031C417.28 497.031 413.61 509.842 415.588 519.262C417.567 528.683 413.871 544.874 413.871 544.874" stroke="#2700C3" stroke-width="0.779827" stroke-linecap="round" stroke-linejoin="round"/>
<path d="M309.18 484.352C309.18 484.352 307.033 493.611 297.94 499.311C288.848 505.012 291.405 505.974 291.405 505.974" stroke="#2700C3" stroke-width="0.54" stroke-linecap="round" stroke-linejoin="round"/>
<path d="M300.128 499.312C300.128 499.312 297.373 499.731 296.804 504.509C296.236 509.287 294.247 519.263 304.192 529.808C314.137 540.354 314.989 541.415 310.159 544.874C305.328 548.334 296.845 556.6 296.256 575.126C295.668 593.652 294.247 634.694 289.701 651.225" stroke="#2700C3" stroke-width="0.54" stroke-linecap="round" stroke-linejoin="round"/>
<path d="M327.776 502.04C327.776 502.04 327.207 510.904 329.48 541.778" stroke="#2700C3" stroke-width="0.54" stroke-linecap="round" stroke-linejoin="round"/>
<path d="M353.741 499.315C353.741 499.315 356.016 500.541 351.68 546.87" stroke="#2700C3" stroke-width="0.54" stroke-linecap="round" stroke-linejoin="round"/>
<path d="M331.418 369.876C331.418 369.876 326.518 373.904 327.004 379.604C327.492 385.304 320.059 387.87 317.949 393.285C315.842 398.7 314.937 403.545 315.531 406.966" stroke="#2700C3" stroke-width="0.54" stroke-linecap="round" stroke-linejoin="round"/>
<path d="M230.969 278.709C230.969 278.709 234.247 281.176 240.965 276.714C247.684 272.252 258.74 271.299 254.046 278.709C249.353 286.12 236.84 302.366 240.965 317.471C245.091 332.577 247.791 335.872 259.794 331.945" stroke="#2700C3" stroke-width="0.54" stroke-linecap="round" stroke-linejoin="round"/>
<path d="M223.895 202.325C223.895 202.325 227.706 197.765 223.895 231.682C223.895 231.682 223.779 240.802 228.61 244.507" stroke="#2700C3" stroke-width="0.54" stroke-linecap="round" stroke-linejoin="round"/>
<path d="M235.86 249.638C235.86 249.638 253.793 251.734 256.12 246.981" stroke="#2700C3" stroke-width="0.54" stroke-linecap="round" stroke-linejoin="round"/>
<path d="M256.12 244.508C256.12 244.508 265.202 238.335 263.813 241.849" stroke="#2700C3" stroke-width="0.54" stroke-linecap="round" stroke-linejoin="round"/>
<path d="M228.61 72.2681C228.61 72.2681 226.207 68.8787 217.476 76.3484C208.744 83.8181 206.131 83.7588 209.982 88.8891C213.835 94.0194 189.967 94.5894 215.54 98.8647C215.54 98.8647 216.96 98.8647 212.13 101.715C207.299 104.565 212.13 104.28 212.13 104.28C212.13 104.28 215.008 114.667 212.858 126.147C210.709 137.627 212.858 130.501 212.858 130.501C212.858 130.501 217.813 125.467 215.54 132.687C213.266 139.907 213.551 145.892 215.54 153.303C217.529 160.713 218.559 168.693 217.476 179.809C216.392 190.925 222.927 187.507 221.222 199.761" stroke="#2700C3" stroke-width="0.54" stroke-linecap="round" stroke-linejoin="round"/>
<path d="M292.721 240.711C292.721 240.711 298.202 232.347 300.345 236.718C302.487 241.087 301.919 250.098 301.919 250.098C301.919 250.098 300.498 255.522 306.749 256.856C313 258.188 310.486 262.272 310.486 262.272" stroke="#2700C3" stroke-width="0.54" stroke-linecap="round" stroke-linejoin="round"/>
<path d="M216.077 296.846C216.077 296.846 219.517 295.353 218.949 297.863C218.381 300.371 216.046 301.637 216.077 299.863" stroke="#2700C3" stroke-width="0.54" stroke-linecap="round" stroke-linejoin="round"/>
<path d="M217.544 290.965C217.544 290.965 215.855 292.105 217.544 292.675C219.233 293.245 219.013 290.965 219.013 290.965" stroke="#2700C3" stroke-width="0.54" stroke-linecap="round" stroke-linejoin="round"/>
<path d="M310.88 205.498C310.88 205.498 308.984 206.24 310.508 207.167C312.033 208.092 312.313 205.818 312.313 205.818" stroke="#2700C3" stroke-width="0.54" stroke-linecap="round" stroke-linejoin="round"/>
<path fill-rule="evenodd" clip-rule="evenodd" d="M305.557 211.636C305.557 211.636 299.156 216.576 305.557 216.955C311.958 217.336 310.985 211.636 310.985 211.636C310.985 211.636 307.54 209.7 305.557 211.636Z" stroke="#2700C3" stroke-width="0.54" stroke-linecap="round" stroke-linejoin="round"/>
<path d="M352.445 231.397C352.445 231.397 362.809 219.996 364.472 228.356C364.472 228.356 358.319 234.057 363.741 236.718L369.165 239.377C369.165 239.377 372.954 239.384 369.165 246.982" stroke="#2700C3" stroke-width="0.54" stroke-linecap="round" stroke-linejoin="round"/>
<path d="M369.732 220.376C369.732 220.376 368.999 223.702 374.008 223.179C379.015 222.656 376.092 217.336 372.912 218.856" stroke="#2700C3" stroke-width="0.54" stroke-linecap="round" stroke-linejoin="round"/>
<path d="M209.78 69.2962C209.78 69.2962 207.83 66.5088 204.832 70.5651C201.836 74.6238 207.721 76.0545 208.75 72.6754" stroke="#2700C3" stroke-width="0.54" stroke-linecap="round" stroke-linejoin="round"/>
<path d="M412.748 253.247C412.748 253.247 424.478 243.55 420.31 256.855C416.144 270.158 418.314 280.419 418.314 280.419C418.314 280.419 419.07 283.594 421.206 282.957C423.342 282.319 416.978 297.049 416.978 297.049H415.007" stroke="#2700C3" stroke-width="0.54" stroke-linecap="round" stroke-linejoin="round"/>
<path d="M473.961 139.432C473.961 139.432 479.033 133.352 477.897 139.432C476.76 145.513 476.002 146.012 472.593 148.233C469.183 150.453 468.278 157.293 470.624 158.813C472.972 160.334 463.88 172.98 463.88 172.98C463.88 172.98 459.712 184.911 461.606 188.393C463.5 191.875 451.988 210.776 451.988 210.776C451.988 210.776 442.639 221.471 444.79 225.293C446.939 229.116 448.052 231.777 444.79 236.718C441.527 241.658 448.547 245.085 444.468 246.982C440.39 248.878 427.594 252.868 432.288 253.343C436.98 253.819 436.089 256.481 434.83 258.38C433.571 260.278 434.83 262.272 434.83 262.272C434.83 262.272 425.89 278.654 421.206 282.958" stroke="#2700C3" stroke-width="0.54" stroke-linecap="round" stroke-linejoin="round"/>
<path d="M451.988 246.981C451.988 246.981 456.681 247.139 457.439 250.098" stroke="#2700C3" stroke-width="0.54" stroke-linecap="round" stroke-linejoin="round"/>
<path d="M260.338 512.637C260.338 512.637 258.568 520.891 264.601 527.391C270.635 533.894 276.989 533.134 276.989 533.134" stroke="#2700C3" stroke-width="0.54" stroke-linecap="round" stroke-linejoin="round"/>
<path d="M384.803 220.91C384.803 220.91 407.366 231.017 397.169 228.356C386.971 225.696 379.162 225.294 379.162 225.294C379.162 225.294 393.116 227.478 397.169 231.396" stroke="#2700C3" stroke-width="0.54" stroke-linecap="round" stroke-linejoin="round"/>
<path d="M482.065 138.672C482.065 138.672 477.897 138.291 482.065 141.711C486.231 145.131 491.82 147.085 490.4 144.367C488.981 141.65 482.379 135.848 480.212 136.729" stroke="#2700C3" stroke-width="0.54" stroke-linecap="round" stroke-linejoin="round"/>
<path d="M475.624 204.035C475.624 204.035 480.502 200.794 478.063 210.775C475.624 220.757 471.836 231.397 471.836 231.397C471.836 231.397 469.941 225.733 471.836 216.975C473.729 208.216 474.117 202.266 478.063 202.12" stroke="#2700C3" stroke-width="0.54" stroke-linecap="round" stroke-linejoin="round"/>
<path d="M334.615 491.77C334.615 491.77 346.089 489.726 356.138 490.461" stroke="#2700C3" stroke-width="1.03977" stroke-linecap="round" stroke-linejoin="round"/>
<path d="M357.444 368.933C357.444 368.933 366.44 385.578 368.429 398.688" stroke="#2700C3" stroke-width="1.03977" stroke-linecap="round" stroke-linejoin="round"/>
<path d="M340.085 338.565C340.085 338.565 341.102 361.001 355.986 367.919C355.986 367.919 376.853 375.526 386.892 361.436" stroke="#2700C3" stroke-width="1.03977" stroke-linecap="round" stroke-linejoin="round"/>
<path d="M330.646 310.631C330.646 310.631 331.102 316.321 336.365 315.342C341.63 314.362 355.943 312.198 370.913 306.641" stroke="#2700C3" stroke-width="1.03977" stroke-linecap="round" stroke-linejoin="round"/>
<path d="M333.473 331.458C333.473 331.458 334.922 321.56 333.974 316.161" stroke="#2700C3" stroke-width="1.03977" stroke-linecap="round" stroke-linejoin="round"/>
<path d="M327.208 503.871V511.187" stroke="#2700C3" stroke-width="2.07954" stroke-linecap="round" stroke-linejoin="round"/>
<path d="M352.861 502.04C352.861 502.04 353.627 511.472 353.008 513.371" stroke="#2700C3" stroke-width="1.03977" stroke-linecap="round" stroke-linejoin="round"/>
<path d="M260.405 500.841C260.405 500.841 259.995 503.049 270.472 504.877" stroke="#2700C3" stroke-width="1.03977" stroke-linecap="round" stroke-linejoin="round"/>
<path d="M393.791 499.312C393.791 499.312 391.802 502.946 391.565 505.974" stroke="#2700C3" stroke-width="1.03977" stroke-linecap="round" stroke-linejoin="round"/>
</g>
</g>
<defs>
<clipPath id="clip0_34_141">
<rect width="680" height="680" fill="white"/>
</clipPath>
<clipPath id="clip1_34_141">
<rect width="302" height="690" fill="white" transform="translate(191 65)"/>
</clipPath>
</defs>
</svg>

