<svg xmlns="http://www.w3.org/2000/svg" xml:space="preserve" id="Capa_1" x="0" y="0" style="enable-background:new 0 0 696 192" version="1.1" viewBox="0 0 696 192"><style>.st0,.st1,.st2{fill-rule:evenodd;clip-rule:evenodd;fill:#3a86fe}.st1,.st2{opacity:6.000000e-02;fill:#101032;enable-background:new}.st2{opacity:.72;fill:url(#SVGID_1_)}.st3,.st4{fill:#fff}.st4{opacity:.96;enable-background:new}.st5{fill:#101032}</style><path d="M664 60.7c0 1.8 1.4 3.3 3.2 3.5C683.4 65.8 696 79.4 696 96s-12.6 30.2-28.8 31.8c-1.8.2-3.2 1.7-3.2 3.5V172c0 11-9 20-20 20H492c-11 0-20-9-20-20V20c0-11 9-20 20-20h41.1c1.6 0 2.8 1.2 3 2.7C537.5 19.1 551.2 32 568 32s30.5-12.9 31.9-29.3c.1-1.6 1.4-2.7 3-2.7H644c11 0 20 9 20 20v40.7z" class="st0"/><path d="M658.1 5.9C654.5 2.2 649.5 0 644 0h-41.1c-1.6 0-2.8 1.2-3 2.7C598.5 19.1 584.8 32 568 32s-30.5-12.9-31.9-29.3c-.1-1.6-1.4-2.7-3-2.7H492c-11 0-20 9-20 20v152c0 5.5 2.2 10.5 5.9 14.1L658.1 5.9z" class="st1"/><linearGradient id="SVGID_1_" x1="568" x2="477.875" y1="98" y2="188.125" gradientTransform="matrix(1 0 0 -1 0 194)" gradientUnits="userSpaceOnUse"><stop offset="0" style="stop-color:#101032;stop-opacity:.12"/><stop offset=".12" style="stop-color:#101032;stop-opacity:0"/></linearGradient><path d="M658.1 5.9C654.5 2.2 649.5 0 644 0h-41.1c-1.6 0-2.8 1.2-3 2.7C598.5 19.1 584.8 32 568 32s-30.5-12.9-31.9-29.3c-.1-1.6-1.4-2.7-3-2.7H492c-11 0-20 9-20 20v152c0 5.5 2.2 10.5 5.9 14.1L658.1 5.9z" class="st2"/><path d="m608.8 55.2-14.5 14.5c9.3 5.1 15.7 15 15.7 26.3 0 16.5-13.5 30-30 30-11.4 0-21.2-6.3-26.3-15.7l-14.5 14.5c9.1 12.8 24 21.2 40.8 21.2 27.6 0 50-22.4 50-50 0-16.8-8.4-31.8-21.2-40.8z" class="st3"/><path d="M528 136V48h-20v108z" class="st4"/><path d="m48.5 160 37.3-81.9 37.3 81.9h1.9l46.6-128h-21.3l-28.2 77.6L86.8 32h-2l-35.3 77.6L21.3 32H0l46.5 128zm120.3 0 5.1-14h37.2c-1-1.4-2-2.9-2.9-4.4-1.8-3-3.5-6.3-5.2-10.4l-2.2-5.2h-19.7l15-41.3 18.1 42.7c1.5 3.6 3 6.5 4.6 9.1 10.1 16.7 25.1 25.6 43.4 25.6 12.7 0 23.9-4.8 31.6-13.6 7.2-8.1 10.4-18.7 9-29.7-2.6-20.6-19.2-28.1-31.4-33.5-14.7-6.6-19.8-10-18.6-21.5.6-5.5 4.1-10.4 9.5-13 5.6-2.8 12-2.4 17.5 1 3.2 2 5.8 5 7.2 8.6l.6 1.5 18.6-7.4-.6-1.5c-3-7.5-8.4-13.9-15.3-18.2-11.3-7-25.1-7.7-36.8-1.9-11.5 5.7-19.2 16.4-20.6 28.8-2.9 26.9 16.3 35.6 30.2 41.9 11.9 5.3 18.7 8.8 19.8 17.8.7 5.2-.8 10.2-4.2 14-3.9 4.4-9.8 6.8-16.6 6.8-11.2 0-19.8-5.2-26.3-15.9-1.1-1.8-2.1-3.8-3.2-6.5l-37-87.5H194l-46.5 128h21.3v-.3zm164.9 0 6.9-74.9 40.5 56.8 40.5-56.8 6.9 74.9h20.1L436.8 32h-1.9l-53.8 75.4L327.3 32h-1.9l-11.8 128z" class="st5"/></svg>