<svg width="231" height="196" viewBox="0 0 231 196" fill="none" xmlns="http://www.w3.org/2000/svg">
<path fill-rule="evenodd" clip-rule="evenodd" d="M199 62.7C199 64.5 200.4 66 202.2 66.2C218.4 67.8 231 81.4 231 98C231 114.6 218.4 128.2 202.2 129.8C200.4 130 199 131.5 199 133.3V174C199 185 190 194 179 194H27C16 194 7 185 7 174V22C7 11 16 2 27 2H68.1C69.7 2 70.9 3.2 71.1 4.7C72.5 21.1 86.2 34 103 34C119.8 34 133.5 21.1 134.9 4.7C135 3.1 136.3 2 137.9 2H179C190 2 199 11 199 22V62.7Z" fill="#3A86FE"/>
<path opacity="0.06" fill-rule="evenodd" clip-rule="evenodd" d="M193.1 7.9C189.5 4.2 184.5 2 179 2H137.9C136.3 2 135.1 3.2 134.9 4.7C133.5 21.1 119.8 34 103 34C86.2 34 72.5 21.1 71.1 4.7C71 3.1 69.7 2 68.1 2H27C16 2 7 11 7 22V174C7 179.5 9.19999 184.5 12.9 188.1L193.1 7.9Z" fill="#101032"/>
<path opacity="0.72" fill-rule="evenodd" clip-rule="evenodd" d="M193.1 7.9C189.5 4.2 184.5 2 179 2H137.9C136.3 2 135.1 3.2 134.9 4.7C133.5 21.1 119.8 34 103 34C86.2 34 72.5 21.1 71.1 4.7C71 3.1 69.7 2 68.1 2H27C16 2 7 11 7 22V174C7 179.5 9.19999 184.5 12.9 188.1L193.1 7.9Z" fill="url(#paint0_linear_1_14)"/>
<path d="M143.8 57.2L129.3 71.7C138.6 76.8 145 86.7 145 98C145 114.5 131.5 128 115 128C103.6 128 93.8 121.7 88.7 112.3L74.2 126.8C83.3 139.6 98.2 148 115 148C142.6 148 165 125.6 165 98C165 81.2 156.6 66.2 143.8 57.2Z" fill="white"/>
<path opacity="0.96" d="M63 138V50H43V158L63 138Z" fill="white"/>
<defs>
<linearGradient id="paint0_linear_1_14" x1="103" y1="98" x2="12.875" y2="7.87501" gradientUnits="userSpaceOnUse">
<stop stop-color="#101032" stop-opacity="0.12"/>
<stop offset="0.12" stop-color="#101032" stop-opacity="0"/>
</linearGradient>
</defs>
</svg>
